<mxfile host="app.diagrams.net" modified="2021-05-15T15:00:33.626Z" agent="5.0 (Windows NT 10.0; Win64; x64) AppleWebKit/537.36 (KHTML, like Gecko) Chrome/90.0.4430.212 Safari/537.36" etag="wbaFXnTESD0-gPLhoreh" version="14.6.11" type="github" pages="2">
  <diagram id="WbBCvXMucLqOIzaJ2uac" name="Page-1">
    <mxGraphModel dx="1392" dy="633" grid="1" gridSize="10" guides="1" tooltips="1" connect="1" arrows="1" fold="1" page="1" pageScale="1" pageWidth="827" pageHeight="1169" math="0" shadow="0">
      <root>
        <mxCell id="0" />
        <mxCell id="1" parent="0" />
        <mxCell id="8v6AbPJRWMZeJ-sW5OFq-3" value="行政办公室" style="rounded=0;whiteSpace=wrap;html=1;" vertex="1" parent="1">
          <mxGeometry x="10" y="210" width="70" height="40" as="geometry" />
        </mxCell>
        <mxCell id="8v6AbPJRWMZeJ-sW5OFq-7" value="教师档案" style="rounded=0;whiteSpace=wrap;html=1;" vertex="1" parent="1">
          <mxGeometry x="150" y="280" width="120" height="50" as="geometry" />
        </mxCell>
        <mxCell id="8v6AbPJRWMZeJ-sW5OFq-8" value="输入调整工资的标准" style="rounded=1;whiteSpace=wrap;html=1;" vertex="1" parent="1">
          <mxGeometry y="350" width="120" height="60" as="geometry" />
        </mxCell>
        <mxCell id="8v6AbPJRWMZeJ-sW5OFq-9" value="保留原来工资档案" style="rounded=1;whiteSpace=wrap;html=1;" vertex="1" parent="1">
          <mxGeometry x="150" y="120" width="120" height="60" as="geometry" />
        </mxCell>
        <mxCell id="8v6AbPJRWMZeJ-sW5OFq-10" value="&lt;font style=&quot;font-size: 10px&quot;&gt;调整工资标准&lt;/font&gt;" style="rounded=0;whiteSpace=wrap;html=1;" vertex="1" parent="1">
          <mxGeometry x="170" y="530" width="120" height="40" as="geometry" />
        </mxCell>
        <mxCell id="8v6AbPJRWMZeJ-sW5OFq-11" value="调整工资" style="rounded=1;whiteSpace=wrap;html=1;" vertex="1" parent="1">
          <mxGeometry x="150" y="410" width="120" height="60" as="geometry" />
        </mxCell>
        <mxCell id="8v6AbPJRWMZeJ-sW5OFq-12" value="打印新工资" style="rounded=1;whiteSpace=wrap;html=1;" vertex="1" parent="1">
          <mxGeometry x="310" y="190" width="120" height="60" as="geometry" />
        </mxCell>
        <mxCell id="8v6AbPJRWMZeJ-sW5OFq-13" value="验证系统" style="rounded=1;whiteSpace=wrap;html=1;" vertex="1" parent="1">
          <mxGeometry x="310" y="410" width="120" height="60" as="geometry" />
        </mxCell>
        <mxCell id="8v6AbPJRWMZeJ-sW5OFq-14" value="行政办公室" style="rounded=0;whiteSpace=wrap;html=1;" vertex="1" parent="1">
          <mxGeometry x="520" y="280" width="120" height="60" as="geometry" />
        </mxCell>
        <mxCell id="8v6AbPJRWMZeJ-sW5OFq-20" value="" style="endArrow=classic;html=1;" edge="1" parent="1">
          <mxGeometry width="50" height="50" relative="1" as="geometry">
            <mxPoint x="60" y="200" as="sourcePoint" />
            <mxPoint x="140" y="160" as="targetPoint" />
            <Array as="points" />
          </mxGeometry>
        </mxCell>
        <mxCell id="8v6AbPJRWMZeJ-sW5OFq-21" value="" style="endArrow=none;html=1;entryX=0.25;entryY=0;entryDx=0;entryDy=0;" edge="1" parent="1" target="8v6AbPJRWMZeJ-sW5OFq-7">
          <mxGeometry width="50" height="50" relative="1" as="geometry">
            <mxPoint x="180" y="330" as="sourcePoint" />
            <mxPoint x="230" y="290" as="targetPoint" />
          </mxGeometry>
        </mxCell>
        <mxCell id="8v6AbPJRWMZeJ-sW5OFq-22" value="" style="endArrow=classic;html=1;" edge="1" parent="1">
          <mxGeometry width="50" height="50" relative="1" as="geometry">
            <mxPoint x="40" y="260" as="sourcePoint" />
            <mxPoint x="40" y="340" as="targetPoint" />
          </mxGeometry>
        </mxCell>
        <mxCell id="8v6AbPJRWMZeJ-sW5OFq-23" value="" style="endArrow=none;html=1;entryX=1;entryY=0.25;entryDx=0;entryDy=0;startArrow=none;" edge="1" parent="1" target="8v6AbPJRWMZeJ-sW5OFq-9">
          <mxGeometry width="50" height="50" relative="1" as="geometry">
            <mxPoint x="150" y="135" as="sourcePoint" />
            <mxPoint x="240" y="140" as="targetPoint" />
          </mxGeometry>
        </mxCell>
        <mxCell id="8v6AbPJRWMZeJ-sW5OFq-24" value="D1" style="text;html=1;strokeColor=none;fillColor=none;align=center;verticalAlign=middle;whiteSpace=wrap;rounded=0;" vertex="1" parent="1">
          <mxGeometry x="140" y="280" width="40" height="20" as="geometry" />
        </mxCell>
        <mxCell id="8v6AbPJRWMZeJ-sW5OFq-27" value="标准" style="text;html=1;strokeColor=none;fillColor=none;align=center;verticalAlign=middle;whiteSpace=wrap;rounded=0;" vertex="1" parent="1">
          <mxGeometry x="90" y="470" width="40" height="20" as="geometry" />
        </mxCell>
        <mxCell id="8v6AbPJRWMZeJ-sW5OFq-28" value="" style="endArrow=classic;html=1;exitX=0.842;exitY=1.017;exitDx=0;exitDy=0;exitPerimeter=0;entryX=0;entryY=0;entryDx=0;entryDy=0;" edge="1" parent="1" source="8v6AbPJRWMZeJ-sW5OFq-8" target="8v6AbPJRWMZeJ-sW5OFq-10">
          <mxGeometry width="50" height="50" relative="1" as="geometry">
            <mxPoint x="50" y="490" as="sourcePoint" />
            <mxPoint x="100" y="440" as="targetPoint" />
          </mxGeometry>
        </mxCell>
        <mxCell id="8v6AbPJRWMZeJ-sW5OFq-29" value="" style="endArrow=none;html=1;exitX=0;exitY=0.25;exitDx=0;exitDy=0;entryX=1;entryY=0.25;entryDx=0;entryDy=0;" edge="1" parent="1" source="8v6AbPJRWMZeJ-sW5OFq-8" target="8v6AbPJRWMZeJ-sW5OFq-8">
          <mxGeometry width="50" height="50" relative="1" as="geometry">
            <mxPoint x="30" y="410" as="sourcePoint" />
            <mxPoint x="80" y="360" as="targetPoint" />
          </mxGeometry>
        </mxCell>
        <mxCell id="8v6AbPJRWMZeJ-sW5OFq-35" value="" style="endArrow=none;html=1;exitX=0;exitY=0.25;exitDx=0;exitDy=0;entryX=1;entryY=0.25;entryDx=0;entryDy=0;" edge="1" parent="1" source="8v6AbPJRWMZeJ-sW5OFq-11" target="8v6AbPJRWMZeJ-sW5OFq-11">
          <mxGeometry width="50" height="50" relative="1" as="geometry">
            <mxPoint x="170" y="470" as="sourcePoint" />
            <mxPoint x="220" y="420" as="targetPoint" />
          </mxGeometry>
        </mxCell>
        <mxCell id="8v6AbPJRWMZeJ-sW5OFq-37" value="" style="endArrow=none;html=1;exitX=0;exitY=0.25;exitDx=0;exitDy=0;entryX=1;entryY=0.25;entryDx=0;entryDy=0;" edge="1" parent="1">
          <mxGeometry width="50" height="50" relative="1" as="geometry">
            <mxPoint x="310" y="430" as="sourcePoint" />
            <mxPoint x="430" y="430" as="targetPoint" />
          </mxGeometry>
        </mxCell>
        <mxCell id="8v6AbPJRWMZeJ-sW5OFq-38" value="" style="endArrow=none;html=1;exitX=0;exitY=0.25;exitDx=0;exitDy=0;entryX=1;entryY=0.25;entryDx=0;entryDy=0;" edge="1" parent="1">
          <mxGeometry width="50" height="50" relative="1" as="geometry">
            <mxPoint x="310" y="209" as="sourcePoint" />
            <mxPoint x="430" y="209" as="targetPoint" />
          </mxGeometry>
        </mxCell>
        <mxCell id="8v6AbPJRWMZeJ-sW5OFq-39" value="" style="endArrow=none;html=1;entryX=0.25;entryY=0;entryDx=0;entryDy=0;" edge="1" parent="1">
          <mxGeometry width="50" height="50" relative="1" as="geometry">
            <mxPoint x="190" y="570" as="sourcePoint" />
            <mxPoint x="190" y="530" as="targetPoint" />
          </mxGeometry>
        </mxCell>
        <mxCell id="8v6AbPJRWMZeJ-sW5OFq-44" value="1.1" style="text;html=1;strokeColor=none;fillColor=none;align=center;verticalAlign=middle;whiteSpace=wrap;rounded=0;" vertex="1" parent="1">
          <mxGeometry x="150" y="120" width="40" height="20" as="geometry" />
        </mxCell>
        <mxCell id="8v6AbPJRWMZeJ-sW5OFq-45" value="1.2" style="text;html=1;strokeColor=none;fillColor=none;align=center;verticalAlign=middle;whiteSpace=wrap;rounded=0;" vertex="1" parent="1">
          <mxGeometry y="350" width="40" height="20" as="geometry" />
        </mxCell>
        <mxCell id="8v6AbPJRWMZeJ-sW5OFq-47" value="" style="endArrow=classic;startArrow=classic;html=1;entryX=0.362;entryY=1.1;entryDx=0;entryDy=0;entryPerimeter=0;exitX=0.375;exitY=-0.023;exitDx=0;exitDy=0;exitPerimeter=0;" edge="1" parent="1" source="8v6AbPJRWMZeJ-sW5OFq-11" target="8v6AbPJRWMZeJ-sW5OFq-7">
          <mxGeometry width="50" height="50" relative="1" as="geometry">
            <mxPoint x="190" y="400" as="sourcePoint" />
            <mxPoint x="240" y="350" as="targetPoint" />
          </mxGeometry>
        </mxCell>
        <mxCell id="8v6AbPJRWMZeJ-sW5OFq-49" value="1.3" style="text;html=1;strokeColor=none;fillColor=none;align=center;verticalAlign=middle;whiteSpace=wrap;rounded=0;" vertex="1" parent="1">
          <mxGeometry x="150" y="410" width="40" height="20" as="geometry" />
        </mxCell>
        <mxCell id="8v6AbPJRWMZeJ-sW5OFq-50" value="D2" style="text;html=1;strokeColor=none;fillColor=none;align=center;verticalAlign=middle;whiteSpace=wrap;rounded=0;" vertex="1" parent="1">
          <mxGeometry x="160" y="540" width="40" height="20" as="geometry" />
        </mxCell>
        <mxCell id="8v6AbPJRWMZeJ-sW5OFq-51" value="" style="endArrow=classic;html=1;exitX=0.382;exitY=-0.095;exitDx=0;exitDy=0;exitPerimeter=0;entryX=0.5;entryY=1;entryDx=0;entryDy=0;" edge="1" parent="1" source="8v6AbPJRWMZeJ-sW5OFq-10" target="8v6AbPJRWMZeJ-sW5OFq-11">
          <mxGeometry width="50" height="50" relative="1" as="geometry">
            <mxPoint x="230" y="530" as="sourcePoint" />
            <mxPoint x="220" y="469" as="targetPoint" />
          </mxGeometry>
        </mxCell>
        <mxCell id="8v6AbPJRWMZeJ-sW5OFq-52" value="" style="endArrow=classic;html=1;exitX=0.855;exitY=-0.084;exitDx=0;exitDy=0;exitPerimeter=0;" edge="1" parent="1" source="8v6AbPJRWMZeJ-sW5OFq-7">
          <mxGeometry width="50" height="50" relative="1" as="geometry">
            <mxPoint x="260" y="300" as="sourcePoint" />
            <mxPoint x="310" y="250" as="targetPoint" />
          </mxGeometry>
        </mxCell>
        <mxCell id="8v6AbPJRWMZeJ-sW5OFq-53" value="" style="endArrow=classic;html=1;entryX=1;entryY=1;entryDx=0;entryDy=0;exitX=0.108;exitY=-0.077;exitDx=0;exitDy=0;exitPerimeter=0;" edge="1" parent="1" source="8v6AbPJRWMZeJ-sW5OFq-13" target="8v6AbPJRWMZeJ-sW5OFq-7">
          <mxGeometry width="50" height="50" relative="1" as="geometry">
            <mxPoint x="290" y="420" as="sourcePoint" />
            <mxPoint x="340" y="370" as="targetPoint" />
          </mxGeometry>
        </mxCell>
        <mxCell id="8v6AbPJRWMZeJ-sW5OFq-54" value="" style="endArrow=classic;html=1;exitX=1;exitY=0.5;exitDx=0;exitDy=0;entryX=0.575;entryY=1.017;entryDx=0;entryDy=0;entryPerimeter=0;" edge="1" parent="1" source="8v6AbPJRWMZeJ-sW5OFq-10" target="8v6AbPJRWMZeJ-sW5OFq-13">
          <mxGeometry width="50" height="50" relative="1" as="geometry">
            <mxPoint x="310" y="550" as="sourcePoint" />
            <mxPoint x="360" y="500" as="targetPoint" />
          </mxGeometry>
        </mxCell>
        <mxCell id="8v6AbPJRWMZeJ-sW5OFq-55" value="" style="endArrow=classic;html=1;exitX=1;exitY=1;exitDx=0;exitDy=0;entryX=0;entryY=0;entryDx=0;entryDy=0;" edge="1" parent="1" source="8v6AbPJRWMZeJ-sW5OFq-12" target="8v6AbPJRWMZeJ-sW5OFq-14">
          <mxGeometry width="50" height="50" relative="1" as="geometry">
            <mxPoint x="480" y="300" as="sourcePoint" />
            <mxPoint x="530" y="250" as="targetPoint" />
          </mxGeometry>
        </mxCell>
        <mxCell id="8v6AbPJRWMZeJ-sW5OFq-56" value="1.4" style="text;html=1;strokeColor=none;fillColor=none;align=center;verticalAlign=middle;whiteSpace=wrap;rounded=0;" vertex="1" parent="1">
          <mxGeometry x="320" y="410" width="40" height="20" as="geometry" />
        </mxCell>
        <mxCell id="8v6AbPJRWMZeJ-sW5OFq-57" value="1.5" style="text;html=1;strokeColor=none;fillColor=none;align=center;verticalAlign=middle;whiteSpace=wrap;rounded=0;" vertex="1" parent="1">
          <mxGeometry x="310" y="190" width="40" height="20" as="geometry" />
        </mxCell>
        <mxCell id="8v6AbPJRWMZeJ-sW5OFq-58" value="标准" style="text;html=1;strokeColor=none;fillColor=none;align=center;verticalAlign=middle;whiteSpace=wrap;rounded=0;" vertex="1" parent="1">
          <mxGeometry x="40" y="280" width="40" height="20" as="geometry" />
        </mxCell>
        <mxCell id="8v6AbPJRWMZeJ-sW5OFq-59" value="原工资档案" style="text;html=1;strokeColor=none;fillColor=none;align=center;verticalAlign=middle;whiteSpace=wrap;rounded=0;" vertex="1" parent="1">
          <mxGeometry x="100" y="200" width="40" height="20" as="geometry" />
        </mxCell>
        <mxCell id="8v6AbPJRWMZeJ-sW5OFq-63" value="" style="endArrow=classic;html=1;exitX=0.5;exitY=1;exitDx=0;exitDy=0;entryX=0.5;entryY=0;entryDx=0;entryDy=0;" edge="1" parent="1" source="8v6AbPJRWMZeJ-sW5OFq-9" target="8v6AbPJRWMZeJ-sW5OFq-7">
          <mxGeometry width="50" height="50" relative="1" as="geometry">
            <mxPoint x="200" y="240" as="sourcePoint" />
            <mxPoint x="250" y="190" as="targetPoint" />
          </mxGeometry>
        </mxCell>
        <mxCell id="8v6AbPJRWMZeJ-sW5OFq-64" value="工资档案" style="text;html=1;strokeColor=none;fillColor=none;align=center;verticalAlign=middle;whiteSpace=wrap;rounded=0;" vertex="1" parent="1">
          <mxGeometry x="210" y="220" width="40" height="20" as="geometry" />
        </mxCell>
        <mxCell id="8v6AbPJRWMZeJ-sW5OFq-65" value="标准" style="text;html=1;strokeColor=none;fillColor=none;align=center;verticalAlign=middle;whiteSpace=wrap;rounded=0;" vertex="1" parent="1">
          <mxGeometry x="220" y="490" width="40" height="20" as="geometry" />
        </mxCell>
        <mxCell id="8v6AbPJRWMZeJ-sW5OFq-66" value="调整后的工资" style="text;html=1;strokeColor=none;fillColor=none;align=center;verticalAlign=middle;whiteSpace=wrap;rounded=0;" vertex="1" parent="1">
          <mxGeometry x="200" y="360" width="40" height="20" as="geometry" />
        </mxCell>
        <mxCell id="8v6AbPJRWMZeJ-sW5OFq-67" value="标准" style="text;html=1;strokeColor=none;fillColor=none;align=center;verticalAlign=middle;whiteSpace=wrap;rounded=0;" vertex="1" parent="1">
          <mxGeometry x="340" y="510" width="40" height="20" as="geometry" />
        </mxCell>
        <mxCell id="8v6AbPJRWMZeJ-sW5OFq-68" value="验证信息" style="text;html=1;strokeColor=none;fillColor=none;align=center;verticalAlign=middle;whiteSpace=wrap;rounded=0;" vertex="1" parent="1">
          <mxGeometry x="310" y="370" width="40" height="20" as="geometry" />
        </mxCell>
        <mxCell id="8v6AbPJRWMZeJ-sW5OFq-69" value="调整后的工资档案" style="text;html=1;strokeColor=none;fillColor=none;align=center;verticalAlign=middle;whiteSpace=wrap;rounded=0;" vertex="1" parent="1">
          <mxGeometry x="310" y="280" width="40" height="20" as="geometry" />
        </mxCell>
        <mxCell id="8v6AbPJRWMZeJ-sW5OFq-70" value="调整后的工资档案" style="text;html=1;strokeColor=none;fillColor=none;align=center;verticalAlign=middle;whiteSpace=wrap;rounded=0;" vertex="1" parent="1">
          <mxGeometry x="440" y="280" width="40" height="20" as="geometry" />
        </mxCell>
      </root>
    </mxGraphModel>
  </diagram>
  <diagram id="CQxPO2mJ2LgYgdMAd_qa" name="Page-2">
    <mxGraphModel dx="1392" dy="633" grid="1" gridSize="10" guides="1" tooltips="1" connect="1" arrows="1" fold="1" page="1" pageScale="1" pageWidth="827" pageHeight="1169" math="0" shadow="0">
      <root>
        <mxCell id="BRRM93oAbVbH7La_WYgD-0" />
        <mxCell id="BRRM93oAbVbH7La_WYgD-1" parent="BRRM93oAbVbH7La_WYgD-0" />
        <mxCell id="BRRM93oAbVbH7La_WYgD-2" value="工资调整系统" style="rounded=1;whiteSpace=wrap;html=1;" vertex="1" parent="BRRM93oAbVbH7La_WYgD-1">
          <mxGeometry x="240" y="40" width="110" height="50" as="geometry" />
        </mxCell>
        <mxCell id="BRRM93oAbVbH7La_WYgD-3" value="保留原有工资档案" style="rounded=1;whiteSpace=wrap;html=1;" vertex="1" parent="BRRM93oAbVbH7La_WYgD-1">
          <mxGeometry x="80" y="130" width="90" height="60" as="geometry" />
        </mxCell>
        <mxCell id="BRRM93oAbVbH7La_WYgD-4" value="调整工资" style="rounded=1;whiteSpace=wrap;html=1;" vertex="1" parent="BRRM93oAbVbH7La_WYgD-1">
          <mxGeometry x="360" y="130" width="90" height="60" as="geometry" />
        </mxCell>
        <mxCell id="BRRM93oAbVbH7La_WYgD-5" value="打印工资表" style="rounded=1;whiteSpace=wrap;html=1;" vertex="1" parent="BRRM93oAbVbH7La_WYgD-1">
          <mxGeometry x="490" y="130" width="90" height="60" as="geometry" />
        </mxCell>
        <mxCell id="BRRM93oAbVbH7La_WYgD-6" value="输入工资档案" style="rounded=1;whiteSpace=wrap;html=1;" vertex="1" parent="BRRM93oAbVbH7La_WYgD-1">
          <mxGeometry x="30" y="250" width="90" height="60" as="geometry" />
        </mxCell>
        <mxCell id="BRRM93oAbVbH7La_WYgD-7" value="输入调整工资标准" style="rounded=1;whiteSpace=wrap;html=1;" vertex="1" parent="BRRM93oAbVbH7La_WYgD-1">
          <mxGeometry x="140" y="250" width="90" height="60" as="geometry" />
        </mxCell>
        <mxCell id="BRRM93oAbVbH7La_WYgD-8" value="按工资多少排序" style="rounded=1;whiteSpace=wrap;html=1;" vertex="1" parent="BRRM93oAbVbH7La_WYgD-1">
          <mxGeometry x="270" y="250" width="80" height="60" as="geometry" />
        </mxCell>
        <mxCell id="BRRM93oAbVbH7La_WYgD-9" value="计算新工资" style="rounded=1;whiteSpace=wrap;html=1;" vertex="1" parent="BRRM93oAbVbH7La_WYgD-1">
          <mxGeometry x="374" y="250" width="80" height="60" as="geometry" />
        </mxCell>
        <mxCell id="BRRM93oAbVbH7La_WYgD-10" value="验证" style="rounded=1;whiteSpace=wrap;html=1;" vertex="1" parent="BRRM93oAbVbH7La_WYgD-1">
          <mxGeometry x="470" y="250" width="80" height="60" as="geometry" />
        </mxCell>
        <mxCell id="BRRM93oAbVbH7La_WYgD-13" value="更新新工资数据" style="rounded=1;whiteSpace=wrap;html=1;" vertex="1" parent="BRRM93oAbVbH7La_WYgD-1">
          <mxGeometry x="570" y="250" width="80" height="60" as="geometry" />
        </mxCell>
        <mxCell id="BRRM93oAbVbH7La_WYgD-20" value="" style="endArrow=none;html=1;fillColor=#000000;" edge="1" parent="BRRM93oAbVbH7La_WYgD-1">
          <mxGeometry width="50" height="50" relative="1" as="geometry">
            <mxPoint x="130" y="110" as="sourcePoint" />
            <mxPoint x="510" y="110" as="targetPoint" />
            <Array as="points">
              <mxPoint x="310" y="110" />
            </Array>
          </mxGeometry>
        </mxCell>
        <mxCell id="BRRM93oAbVbH7La_WYgD-21" value="" style="endArrow=none;html=1;fillColor=#000000;entryX=0.573;entryY=1.02;entryDx=0;entryDy=0;entryPerimeter=0;" edge="1" parent="BRRM93oAbVbH7La_WYgD-1" target="BRRM93oAbVbH7La_WYgD-2">
          <mxGeometry width="50" height="50" relative="1" as="geometry">
            <mxPoint x="303" y="110" as="sourcePoint" />
            <mxPoint x="310" y="180" as="targetPoint" />
          </mxGeometry>
        </mxCell>
        <mxCell id="BRRM93oAbVbH7La_WYgD-22" value="" style="endArrow=none;html=1;fillColor=#000000;" edge="1" parent="BRRM93oAbVbH7La_WYgD-1">
          <mxGeometry width="50" height="50" relative="1" as="geometry">
            <mxPoint x="130" y="128" as="sourcePoint" />
            <mxPoint x="130" y="110" as="targetPoint" />
          </mxGeometry>
        </mxCell>
        <mxCell id="BRRM93oAbVbH7La_WYgD-23" value="" style="endArrow=none;html=1;fillColor=#000000;" edge="1" parent="BRRM93oAbVbH7La_WYgD-1" source="BRRM93oAbVbH7La_WYgD-4">
          <mxGeometry width="50" height="50" relative="1" as="geometry">
            <mxPoint x="405" y="109.28932188134524" as="sourcePoint" />
            <mxPoint x="405" y="110" as="targetPoint" />
          </mxGeometry>
        </mxCell>
        <mxCell id="BRRM93oAbVbH7La_WYgD-24" value="" style="endArrow=none;html=1;fillColor=#000000;" edge="1" parent="BRRM93oAbVbH7La_WYgD-1">
          <mxGeometry width="50" height="50" relative="1" as="geometry">
            <mxPoint x="510" y="130" as="sourcePoint" />
            <mxPoint x="510" y="110" as="targetPoint" />
          </mxGeometry>
        </mxCell>
        <mxCell id="BRRM93oAbVbH7La_WYgD-25" value="" style="endArrow=none;html=1;fillColor=#000000;" edge="1" parent="BRRM93oAbVbH7La_WYgD-1">
          <mxGeometry width="50" height="50" relative="1" as="geometry">
            <mxPoint x="70" y="220" as="sourcePoint" />
            <mxPoint x="180" y="220" as="targetPoint" />
          </mxGeometry>
        </mxCell>
        <mxCell id="BRRM93oAbVbH7La_WYgD-26" value="" style="endArrow=none;html=1;fillColor=#000000;exitX=0.429;exitY=0.003;exitDx=0;exitDy=0;exitPerimeter=0;" edge="1" parent="BRRM93oAbVbH7La_WYgD-1" source="BRRM93oAbVbH7La_WYgD-6">
          <mxGeometry width="50" height="50" relative="1" as="geometry">
            <mxPoint x="30" y="280" as="sourcePoint" />
            <mxPoint x="70" y="220" as="targetPoint" />
          </mxGeometry>
        </mxCell>
        <mxCell id="BRRM93oAbVbH7La_WYgD-27" value="" style="endArrow=none;html=1;fillColor=#000000;exitX=0.5;exitY=0;exitDx=0;exitDy=0;" edge="1" parent="BRRM93oAbVbH7La_WYgD-1" source="BRRM93oAbVbH7La_WYgD-7">
          <mxGeometry width="50" height="50" relative="1" as="geometry">
            <mxPoint x="130" y="280" as="sourcePoint" />
            <mxPoint x="180" y="220" as="targetPoint" />
          </mxGeometry>
        </mxCell>
        <mxCell id="BRRM93oAbVbH7La_WYgD-28" value="" style="endArrow=none;html=1;fillColor=#000000;entryX=0.5;entryY=1;entryDx=0;entryDy=0;" edge="1" parent="BRRM93oAbVbH7La_WYgD-1" target="BRRM93oAbVbH7La_WYgD-3">
          <mxGeometry width="50" height="50" relative="1" as="geometry">
            <mxPoint x="125" y="220" as="sourcePoint" />
            <mxPoint x="160" y="210" as="targetPoint" />
          </mxGeometry>
        </mxCell>
        <mxCell id="BRRM93oAbVbH7La_WYgD-29" value="" style="endArrow=none;html=1;fillColor=#000000;" edge="1" parent="BRRM93oAbVbH7La_WYgD-1">
          <mxGeometry width="50" height="50" relative="1" as="geometry">
            <mxPoint x="320" y="220" as="sourcePoint" />
            <mxPoint x="600" y="220" as="targetPoint" />
          </mxGeometry>
        </mxCell>
        <mxCell id="BRRM93oAbVbH7La_WYgD-30" value="" style="endArrow=none;html=1;fillColor=#000000;entryX=0.611;entryY=1.083;entryDx=0;entryDy=0;entryPerimeter=0;" edge="1" parent="BRRM93oAbVbH7La_WYgD-1" target="BRRM93oAbVbH7La_WYgD-4">
          <mxGeometry width="50" height="50" relative="1" as="geometry">
            <mxPoint x="415" y="220" as="sourcePoint" />
            <mxPoint x="470" y="190" as="targetPoint" />
          </mxGeometry>
        </mxCell>
        <mxCell id="BRRM93oAbVbH7La_WYgD-31" value="" style="endArrow=none;html=1;fillColor=#000000;exitX=0.625;exitY=0;exitDx=0;exitDy=0;exitPerimeter=0;" edge="1" parent="BRRM93oAbVbH7La_WYgD-1" source="BRRM93oAbVbH7La_WYgD-8">
          <mxGeometry width="50" height="50" relative="1" as="geometry">
            <mxPoint x="290" y="270" as="sourcePoint" />
            <mxPoint x="320" y="220" as="targetPoint" />
          </mxGeometry>
        </mxCell>
        <mxCell id="BRRM93oAbVbH7La_WYgD-33" value="" style="endArrow=none;html=1;fillColor=#000000;" edge="1" parent="BRRM93oAbVbH7La_WYgD-1" source="BRRM93oAbVbH7La_WYgD-10">
          <mxGeometry width="50" height="50" relative="1" as="geometry">
            <mxPoint x="510" y="229.28932188134524" as="sourcePoint" />
            <mxPoint x="510" y="220" as="targetPoint" />
          </mxGeometry>
        </mxCell>
        <mxCell id="BRRM93oAbVbH7La_WYgD-36" value="" style="endArrow=none;html=1;fillColor=#000000;" edge="1" parent="BRRM93oAbVbH7La_WYgD-1">
          <mxGeometry width="50" height="50" relative="1" as="geometry">
            <mxPoint x="600" y="250" as="sourcePoint" />
            <mxPoint x="600" y="220" as="targetPoint" />
          </mxGeometry>
        </mxCell>
        <mxCell id="BRRM93oAbVbH7La_WYgD-38" value="" style="endArrow=none;html=1;fillColor=#000000;" edge="1" parent="BRRM93oAbVbH7La_WYgD-1">
          <mxGeometry width="50" height="50" relative="1" as="geometry">
            <mxPoint x="400" y="248" as="sourcePoint" />
            <mxPoint x="400" y="220" as="targetPoint" />
          </mxGeometry>
        </mxCell>
      </root>
    </mxGraphModel>
  </diagram>
</mxfile>
